<?xml version="1.0" encoding="UTF-8" standalone="no"?>
<!DOCTYPE svg PUBLIC "-//W3C//DTD SVG 1.1//EN"
 "http://www.w3.org/Graphics/SVG/1.1/DTD/svg11.dtd">
<!-- Generated by graphviz version 2.40.1 (20161225.0304)
 -->
<!-- Title: dependencies Pages: 1 -->
<svg width="952pt" height="284pt"
 viewBox="0.00 0.00 952.00 284.00" xmlns="http://www.w3.org/2000/svg" xmlns:xlink="http://www.w3.org/1999/xlink">
<g id="graph0" class="graph" transform="scale(1 1) rotate(0) translate(4 280)">
<title>dependencies</title>
<polygon fill="#ffffff" stroke="transparent" points="-4,4 -4,-280 948,-280 948,4 -4,4"/>
<text text-anchor="start" x="451.0091" y="-42.4" font-family="sans-serif" font-weight="bold" font-size="14.00" fill="#000000">Legend</text>
<polygon fill="#ffffb3" stroke="transparent" points="238,-10 238,-30 258,-30 258,-10 238,-10"/>
<text text-anchor="start" x="261.629" y="-15.4" font-family="sans-serif" font-size="14.00" fill="#000000"> &#160;Declarations</text>
<polygon fill="#8dd3c7" stroke="transparent" points="351,-10 351,-30 371,-30 371,-10 351,-10"/>
<text text-anchor="start" x="374.7251" y="-15.4" font-family="sans-serif" font-size="14.00" fill="#000000"> &#160;Module</text>
<polygon fill="#80b1d3" stroke="transparent" points="437,-10 437,-30 457,-30 457,-10 437,-10"/>
<text text-anchor="start" x="460.7812" y="-15.4" font-family="sans-serif" font-size="14.00" fill="#000000"> &#160;Bootstrap</text>
<polygon fill="#fdb462" stroke="transparent" points="534,-10 534,-30 554,-30 554,-10 534,-10"/>
<text text-anchor="start" x="557.6732" y="-15.4" font-family="sans-serif" font-size="14.00" fill="#000000"> &#160;Providers</text>
<polygon fill="#fb8072" stroke="transparent" points="630,-10 630,-30 650,-30 650,-10 630,-10"/>
<text text-anchor="start" x="653.7258" y="-15.4" font-family="sans-serif" font-size="14.00" fill="#000000"> &#160;Exports</text>
<g id="clust1" class="cluster">
<title>cluster_AppModule</title>
<polygon fill="none" stroke="#000000" stroke-dasharray="1,5" points="8,-70 8,-268 936,-268 936,-70 8,-70"/>
</g>
<g id="clust2" class="cluster">
<title>cluster_AppModule_declarations</title>
<polygon fill="none" stroke="#000000" points="366,-78 366,-130 928,-130 928,-78 366,-78"/>
</g>
<g id="clust7" class="cluster">
<title>cluster_AppModule_imports</title>
<polygon fill="none" stroke="#000000" points="214,-78 214,-130 358,-130 358,-78 214,-78"/>
</g>
<g id="clust9" class="cluster">
<title>cluster_AppModule_bootstrap</title>
<polygon fill="none" stroke="#000000" points="461,-208 461,-260 585,-260 585,-208 461,-208"/>
</g>
<g id="clust10" class="cluster">
<title>cluster_AppModule_providers</title>
<polygon fill="none" stroke="#000000" points="16,-78 16,-130 206,-130 206,-78 16,-78"/>
</g>
<!-- AppComponent -->
<g id="node1" class="node">
<title>AppComponent</title>
<polygon fill="#ffffb3" stroke="#000000" points="919.9399,-122 814.0601,-122 814.0601,-86 919.9399,-86 919.9399,-122"/>
<text text-anchor="middle" x="867" y="-99.8" font-family="Times,serif" font-size="14.00" fill="#000000">AppComponent</text>
</g>
<!-- AppModule -->
<g id="node5" class="node">
<title>AppModule</title>
<polygon fill="#8dd3c7" stroke="#000000" points="564.6571,-187 561.6571,-191 540.6571,-191 537.6571,-187 481.3429,-187 481.3429,-151 564.6571,-151 564.6571,-187"/>
<text text-anchor="middle" x="523" y="-164.8" font-family="Times,serif" font-size="14.00" fill="#000000">AppModule</text>
</g>
<!-- AppComponent&#45;&gt;AppModule -->
<g id="edge1" class="edge">
<title>AppComponent&#45;&gt;AppModule</title>
<path fill="none" stroke="#000000" d="M867,-122.2843C867,-143.3211 867,-175 867,-175 867,-175 574.8372,-175 574.8372,-175"/>
<polygon fill="#000000" stroke="#000000" points="574.8373,-171.5001 564.8372,-175 574.8372,-178.5001 574.8373,-171.5001"/>
</g>
<!-- HeaderComponent -->
<g id="node2" class="node">
<title>HeaderComponent</title>
<polygon fill="#ffffb3" stroke="#000000" points="795.7437,-122 674.2563,-122 674.2563,-86 795.7437,-86 795.7437,-122"/>
<text text-anchor="middle" x="735" y="-99.8" font-family="Times,serif" font-size="14.00" fill="#000000">HeaderComponent</text>
</g>
<!-- HeaderComponent&#45;&gt;AppModule -->
<g id="edge2" class="edge">
<title>HeaderComponent&#45;&gt;AppModule</title>
<path fill="none" stroke="#000000" d="M735,-122.0225C735,-139.3734 735,-163 735,-163 735,-163 574.8844,-163 574.8844,-163"/>
<polygon fill="#000000" stroke="#000000" points="574.8844,-159.5001 564.8844,-163 574.8843,-166.5001 574.8844,-159.5001"/>
</g>
<!-- HomeComponent -->
<g id="node3" class="node">
<title>HomeComponent</title>
<polygon fill="#ffffb3" stroke="#000000" points="655.5451,-122 540.4549,-122 540.4549,-86 655.5451,-86 655.5451,-122"/>
<text text-anchor="middle" x="598" y="-99.8" font-family="Times,serif" font-size="14.00" fill="#000000">HomeComponent</text>
</g>
<!-- HomeComponent&#45;&gt;AppModule -->
<g id="edge3" class="edge">
<title>HomeComponent&#45;&gt;AppModule</title>
<path fill="none" stroke="#000000" d="M552.5281,-122.1061C552.5281,-122.1061 552.5281,-140.991 552.5281,-140.991"/>
<polygon fill="#000000" stroke="#000000" points="549.0281,-140.9909 552.5281,-150.991 556.0281,-140.991 549.0281,-140.9909"/>
</g>
<!-- NotificationComponent -->
<g id="node4" class="node">
<title>NotificationComponent</title>
<polygon fill="#ffffb3" stroke="#000000" points="522.4818,-122 373.5182,-122 373.5182,-86 522.4818,-86 522.4818,-122"/>
<text text-anchor="middle" x="448" y="-99.8" font-family="Times,serif" font-size="14.00" fill="#000000">NotificationComponent</text>
</g>
<!-- NotificationComponent&#45;&gt;AppModule -->
<g id="edge4" class="edge">
<title>NotificationComponent&#45;&gt;AppModule</title>
<path fill="none" stroke="#000000" d="M501.8314,-122.1061C501.8314,-122.1061 501.8314,-140.991 501.8314,-140.991"/>
<polygon fill="#000000" stroke="#000000" points="498.3314,-140.9909 501.8314,-150.991 505.3314,-140.991 498.3314,-140.9909"/>
</g>
<!-- AppComponent  -->
<g id="node7" class="node">
<title>AppComponent </title>
<polygon fill="#80b1d3" stroke="#000000" points="577.439,-252 468.561,-252 468.561,-216 577.439,-216 577.439,-252"/>
<text text-anchor="middle" x="523" y="-229.8" font-family="Times,serif" font-size="14.00" fill="#000000">AppComponent </text>
</g>
<!-- AppModule&#45;&gt;AppComponent  -->
<g id="edge6" class="edge">
<title>AppModule&#45;&gt;AppComponent </title>
<path fill="none" stroke="#000000" stroke-dasharray="1,5" d="M523,-187.1061C523,-187.1061 523,-205.991 523,-205.991"/>
<polygon fill="#000000" stroke="#000000" points="519.5001,-205.9909 523,-215.991 526.5001,-205.991 519.5001,-205.9909"/>
</g>
<!-- AppRoutingModule -->
<g id="node6" class="node">
<title>AppRoutingModule</title>
<polygon fill="#8dd3c7" stroke="#000000" points="350.2744,-122 347.2744,-126 326.2744,-126 323.2744,-122 221.7256,-122 221.7256,-86 350.2744,-86 350.2744,-122"/>
<text text-anchor="middle" x="286" y="-99.8" font-family="Times,serif" font-size="14.00" fill="#000000">AppRoutingModule</text>
</g>
<!-- AppRoutingModule&#45;&gt;AppModule -->
<g id="edge5" class="edge">
<title>AppRoutingModule&#45;&gt;AppModule</title>
<path fill="none" stroke="#000000" d="M286,-122.0225C286,-139.3734 286,-163 286,-163 286,-163 471.1747,-163 471.1747,-163"/>
<polygon fill="#000000" stroke="#000000" points="471.1747,-166.5001 481.1747,-163 471.1747,-159.5001 471.1747,-166.5001"/>
</g>
<!-- NotificationService -->
<g id="node8" class="node">
<title>NotificationService</title>
<ellipse fill="#fdb462" stroke="#000000" cx="111" cy="-104" rx="86.8107" ry="18"/>
<text text-anchor="middle" x="111" y="-99.8" font-family="Times,serif" font-size="14.00" fill="#000000">NotificationService</text>
</g>
<!-- NotificationService&#45;&gt;AppModule -->
<g id="edge7" class="edge">
<title>NotificationService&#45;&gt;AppModule</title>
<path fill="none" stroke="#000000" d="M111,-122.2843C111,-143.3211 111,-175 111,-175 111,-175 471.2279,-175 471.2279,-175"/>
<polygon fill="#000000" stroke="#000000" points="471.228,-178.5001 481.2279,-175 471.2279,-171.5001 471.228,-178.5001"/>
</g>
</g>
</svg>
